<?xml version="1.0" encoding="UTF-8"?>
<svg xmlns="http://www.w3.org/2000/svg" xmlns:xlink="http://www.w3.org/1999/xlink" width="128px" height="128px" viewBox="0 0 128 128" version="1.1">
<g id="surface1">
<path style=" stroke:none;fill-rule:nonzero;fill:rgb(23.921569%,94.901961%,8.627451%);fill-opacity:1;" d="M 12.867188 121.90625 L 115.128906 121.90625 C 122.226562 121.90625 127.996094 116.140625 127.996094 109.039062 L 127.996094 18.960938 C 127.996094 11.863281 122.222656 6.09375 115.128906 6.09375 L 12.867188 6.09375 C 5.773438 6.09375 0 11.867188 0 18.960938 L 0 109.039062 C 0 116.140625 5.773438 121.90625 12.867188 121.90625 Z M 12.867188 109.039062 L 12.867188 76.867188 L 38.605469 76.867188 L 38.605469 109.039062 Z M 77.210938 31.828125 L 77.210938 64 L 51.476562 64 L 51.476562 31.828125 Z M 38.605469 31.828125 L 38.605469 64 L 12.867188 64 L 12.867188 31.828125 Z M 51.476562 109.039062 L 51.476562 76.867188 L 77.210938 76.867188 L 77.210938 109.039062 Z M 90.078125 109.039062 L 90.078125 76.867188 L 115.136719 76.867188 L 115.136719 109.039062 Z M 115.132812 64 L 90.078125 64 L 90.078125 31.828125 L 115.132812 31.828125 Z M 115.132812 64 "/>
</g>
</svg>
